<svg id="visual" viewBox="0 0 900 600" width="900" height="600" xmlns="http://www.w3.org/2000/svg" xmlns:xlink="http://www.w3.org/1999/xlink" version="1.1"><rect x="0" y="0" width="900" height="600" fill="#FFFFFF"></rect><path d="M0 465L25 449.3C50 433.7 100 402.3 150 385C200 367.7 250 364.3 300 381.2C350 398 400 435 450 452.7C500 470.3 550 468.7 600 473.7C650 478.7 700 490.3 750 475.8C800 461.3 850 420.7 875 400.3L900 380L900 601L875 601C850 601 800 601 750 601C700 601 650 601 600 601C550 601 500 601 450 601C400 601 350 601 300 601C250 601 200 601 150 601C100 601 50 601 25 601L0 601Z" fill="#0066FF" stroke-linecap="round" stroke-linejoin="miter"></path></svg>